<?xml version="1.0" encoding="utf-8"?>
<!-- Generator: Adobe Illustrator 22.0.1, SVG Export Plug-In . SVG Version: 6.00 Build 0)  -->
<svg version="1.1" id="Ebene_1" xmlns="http://www.w3.org/2000/svg" xmlns:xlink="http://www.w3.org/1999/xlink" x="0px" y="0px"
	 viewBox="0 0 1394.2 1632.3" style="enable-background:new 0 0 1394.2 1632.3;" xml:space="preserve">
<style type="text/css">
	.st0{fill:#CD1719;}
	.st1{fill:none;stroke:#CD1719;stroke-width:0.86;stroke-miterlimit:10;}
	.st2{fill:none;stroke:#FFFFFF;stroke-width:18;stroke-miterlimit:10;}
	.st3{fill:#FFFFFF;}
</style>
<g>
	<path class="st0" d="M492,442.2h11.1v-77.1H492V442.2z M508.4,363.9h10.9V85.8h-10.9V363.9z M534.6,125.4h10.9V85.8h-10.9V125.4z
		 M545,229.5h10.9v-39.9H545V229.5z M560.5,125.5h10.9V86h-10.9V125.5z M586.1,150.2h11.1V86h-11.1V150.2z M627.9,150.2h10.9V60.7
		h-10.9V150.2z M653.7,99.8h10.9V60.3h-10.9V99.8z M679.5,99.8h10.9V60.3h-10.9V99.8z M705.3,150h10.8V60.4h-10.8V150z M748,150.2
		h10.9V85.8H748V150.2z M773.8,125.5h10.7V85.9h-10.7V125.5z M799.4,125.5h11V86h-11V125.5z M799.8,189.6H789v39.5h10.8V189.6z
		 M825.3,364h11V86h-11V364z M841.6,442.2h10.9v-77.1h-10.9V442.2z M756.7,405.5l-46-24.8c-24-12.9-52.8-12.9-76.7,0l-47.2,25.4
		c0-47.5,0-95,0.2-142.5c0.1-15.9,4.2-31.1,13.9-43.9c21.2-28.3,49.7-40.7,84.9-35.7c19.1,2.7,35.6,11.4,48.6,25.9
		c15.7,17.4,22.1,38.6,22.2,61.5C756.9,316,756.7,360.7,756.7,405.5 M1219.1,905.5c-3.9-10.6-5.5-21.9-4.8-33.1l7.5-113.9
		c1.8-27.2-10.2-53.4-31.9-69.8l-91-69c-9-6.8-16.4-15.4-21.9-25.3l-55.3-99.9c-13.2-23.8-37.4-39.4-64.6-41.5l-113.8-8.8
		c-11.2-0.9-22.2-4.1-32.1-9.4l-43.3-23.3c0-45.3,0.1-90.6-0.1-135.9c0-8.4-0.7-16.9-2.1-25.2c-3.4-19.9-11.5-37.8-26.4-51.7
		c-26.4-24.6-57.5-32.9-92.5-23.8c-43.3,11.2-71.3,47.4-71.3,91.2c0,48.7,0,97.4,0,146l-42.1,22.6c-9.9,5.3-20.9,8.6-32.1,9.4
		l-113.8,8.8c-27.1,2.1-51.4,17.7-64.6,41.5l-55.3,99.9c-5.5,9.9-12.9,18.5-21.9,25.3l-91,69c-21.7,16.4-33.6,42.6-31.9,69.8
		l7.4,113.9c0.7,11.2-0.9,22.5-4.8,33.1l-39.2,107.2c-9.4,25.5-5.3,54.1,10.9,76l67.9,91.8c6.7,9.1,11.4,19.4,13.9,30.4l24.9,111.4
		c6,26.6,24.8,48.3,50.3,58l106.7,40.6c10.5,4,20.1,10.2,28.1,18.1l81.2,80.2c19.4,19.1,47,27.2,73.6,21.6l111.7-23.6
		c11-2.3,22.4-2.3,33.5,0l111.7,23.6c26.6,5.6,54.3-2.5,73.6-21.6l81.2-80.2c8-7.9,17.6-14.1,28.2-18.1l106.7-40.6
		c25.4-9.7,44.3-31.4,50.2-58l25-111.4c2.5-11,7.2-21.4,13.9-30.4l67.9-91.8c16.2-21.9,20.3-50.4,10.9-76L1219.1,905.5z"/>
	<path class="st1" d="M492,442.2h11.1v-77.1H492V442.2z M508.4,363.9h10.9V85.8h-10.9V363.9z M534.6,125.4h10.9V85.8h-10.9V125.4z
		 M545,229.5h10.9v-39.9H545V229.5z M560.5,125.5h10.9V86h-10.9V125.5z M586.1,150.2h11.1V86h-11.1V150.2z M627.9,150.2h10.9V60.7
		h-10.9V150.2z M653.7,99.8h10.9V60.3h-10.9V99.8z M679.5,99.8h10.9V60.3h-10.9V99.8z M705.3,150h10.8V60.4h-10.8V150z M748,150.2
		h10.9V85.8H748V150.2z M773.8,125.5h10.7V85.9h-10.7V125.5z M799.4,125.5h11V86h-11V125.5z M799.8,189.6H789v39.5h10.8V189.6z
		 M825.3,364h11V86h-11V364z M841.6,442.2h10.9v-77.1h-10.9V442.2z M756.7,405.5l-46-24.8c-24-12.9-52.8-12.9-76.7,0l-47.2,25.4
		c0-47.5,0-95,0.2-142.5c0.1-15.9,4.2-31.1,13.9-43.9c21.2-28.3,49.7-40.7,84.9-35.7c19.1,2.7,35.6,11.4,48.6,25.9
		c15.7,17.4,22.1,38.6,22.2,61.5C756.9,316,756.7,360.7,756.7,405.5z M1219.1,905.5c-3.9-10.6-5.5-21.9-4.8-33.1l7.5-113.9
		c1.8-27.2-10.2-53.4-31.9-69.8l-91-69c-9-6.8-16.4-15.4-21.9-25.3l-55.3-99.9c-13.2-23.8-37.4-39.4-64.6-41.5l-113.8-8.8
		c-11.2-0.9-22.2-4.1-32.1-9.4l-43.3-23.3c0-45.3,0.1-90.6-0.1-135.9c0-8.4-0.7-16.9-2.1-25.2c-3.4-19.9-11.5-37.8-26.4-51.7
		c-26.4-24.6-57.5-32.9-92.5-23.8c-43.3,11.2-71.3,47.4-71.3,91.2c0,48.7,0,97.4,0,146l-42.1,22.6c-9.9,5.3-20.9,8.6-32.1,9.4
		l-113.8,8.8c-27.1,2.1-51.4,17.7-64.6,41.5l-55.3,99.9c-5.5,9.9-12.9,18.5-21.9,25.3l-91,69c-21.7,16.4-33.6,42.6-31.9,69.8
		l7.4,113.9c0.7,11.2-0.9,22.5-4.8,33.1l-39.2,107.2c-9.4,25.5-5.3,54.1,10.9,76l67.9,91.8c6.7,9.1,11.4,19.4,13.9,30.4l24.9,111.4
		c6,26.6,24.8,48.3,50.3,58l106.7,40.6c10.5,4,20.1,10.2,28.1,18.1l81.2,80.2c19.4,19.1,47,27.2,73.6,21.6l111.7-23.6
		c11-2.3,22.4-2.3,33.5,0l111.7,23.6c26.6,5.6,54.3-2.5,73.6-21.6l81.2-80.2c8-7.9,17.6-14.1,28.2-18.1l106.7-40.6
		c25.4-9.7,44.3-31.4,50.2-58l25-111.4c2.5-11,7.2-21.4,13.9-30.4l67.9-91.8c16.2-21.9,20.3-50.4,10.9-76L1219.1,905.5z"/>
	<path class="st0" d="M672.3,1463.7c275.4,0,499.5-224.1,499.5-499.5c0-275.4-224.1-499.5-499.5-499.5S172.8,688.8,172.8,964.2
		C172.8,1239.6,396.9,1463.7,672.3,1463.7"/>
	<path class="st2" d="M672.3,1463.7c275.4,0,499.5-224.1,499.5-499.5c0-275.4-224.1-499.5-499.5-499.5S172.8,688.8,172.8,964.2
		C172.8,1239.6,396.9,1463.7,672.3,1463.7z"/>
</g>
<g>
	<path class="st3" d="M276.3,849.1l7.6-21.5c2-5.8,4.1-11,6.4-14c4.6-6.1,11-6.9,16.3-5.1c3,1.1,4.5,2.5,5,2.9
		c4.8,4.5,4,10.2,3.6,13.5c1.7-3.2,4-7.4,8.6-9.3c2.8-1.2,6.3-1.2,9.4-0.1c4.3,1.5,9.6,5.9,10.2,13.9c0.3,4.8-1,9.4-3.2,15.7
		l-8.3,23.4L276.3,849.1z M291.4,839.6l11.6,4.1l3.7-10.5c1-3.2,2.7-8.3-3.1-10.4c-5.3-1.9-7.2,2.7-8.2,5.3L291.4,839.6z M313,847.2
		l13.4,4.7l3.4-9.7c1.6-4.7,3.5-10.8-2.8-13c-6.7-2.4-8.7,3.1-9.8,5.9L313,847.2z"/>
</g>
<g>
	<path class="st3" d="M307.3,768.8l23-36.9l9.7,6l-15.3,24.5l9.1,5.7l14.3-22.8l9.5,5.9L343.3,774l11.9,7.4l16.6-26.7l9.8,6.1
		L357.3,800L307.3,768.8z"/>
</g>
<g>
	<path class="st3" d="M360.1,692.3l44.9,38l-9.5,11.2l-44.9-38L360.1,692.3z"/>
</g>
<g>
	<path class="st3" d="M384.3,664.5l11-9.3l23.7,8.3c8.9,3.3,11.7,4.4,17.1,6.6l-24.9-28.4l10.8-9.1l38,44.9l-11,9.3l-20.4-7.1
		c-9.7-3.2-11.7-4-19.8-7.4l24.2,28l-10.8,9.1L384.3,664.5z"/>
</g>
<g>
	<path class="st3" d="M487.3,591.8c4.4,4.9,8.8,9.8,13.3,14.6c8,8.7,9.3,10.1,16,19.5c-3.6-11.2-4.1-13.2-7.1-25.1
		c-1.6-5.9-3-11.9-4.5-17.8l13.1-6.5l12.8,59.4l-13.6,6.8c-4.5-5-9-10.1-13.6-14.9c-7.7-8.3-8-8.6-13.2-15.2c1.9,7.2,2,7.8,4,19.3
		l3.8,20.3l-13.6,6.8l-39.6-46.1l13.1-6.5c18.1,22.2,20.1,24.7,27.3,35.3c-3.3-11.4-3.7-13.7-6.2-25.5l-3.8-18.4L487.3,591.8z"/>
</g>
<g>
	<path class="st3" d="M594,554.7l7.8,31.9c1.3,5.5,2.5,11.1,0.6,17c-3.7,11.4-16.3,15-18.8,15.6c-4.3,1-9.7,1.2-14,0.2
		c-12.4-3-14.9-13-16.7-20.8l-7.8-31.9l14.4-3.5l8.7,35.6c0.7,2.9,1.4,5.3,2.8,6.9c2.5,2.6,6.6,2.5,10.2,1.6c9.7-2.4,8.1-9,7.1-13.5
		l-8.7-35.6L594,554.7z"/>
</g>
<g>
	<path class="st3" d="M631.7,548.2l26.5-0.3c6.2,0,13.8,0,19.3,5.8c2.8,3,4.8,7.7,4.8,13c0.2,11.8-7.9,14.9-11.9,16.4l13.9,23.3
		l-16.3,0.2l-11.9-20.9l-9.3,0.1l0.3,21l-14.8,0.2L631.7,548.2z M646.6,559l0.2,15.9l12.2-0.2c2.1-0.1,8.8-0.4,8.7-8.2
		c-0.1-7.5-5.5-7.7-8.6-7.7L646.6,559z"/>
</g>
<g>
	<path class="st3" d="M715.8,590.4c1.2,1.9,2.1,3.5,4.7,5.6c3.5,2.8,7.2,4.3,10.6,4.9c5.7,1.1,11.2-0.7,11.9-4.7
		c0.9-4.6-4.8-6.4-8.9-7.8c-3.1-1-6.2-2-9.2-3.3c-3.4-1.4-14.9-6.3-12.5-18.7c2.9-14.9,17-16.8,27-14.9
		c13.3,2.6,19.3,10.4,23.4,15.9l-12.1,5.6c-1.5-2.1-2.8-4-4.8-5.8c-1.8-1.5-5.2-3.6-8.9-4.3c-5.7-1.1-9.2,1.6-9.8,4.4
		c-0.8,4.4,3.9,6,6.3,6.8c6,1.9,14,5.1,17,6.8c6.2,3.7,8.5,9.5,7.3,16.1c-0.8,4.2-3.2,8.5-6.9,11.4c-6.4,5.1-15.1,5.2-23.2,3.6
		c-16.3-3.1-21.3-11.9-24.1-16.8L715.8,590.4z"/>
</g>
<g>
	<path class="st3" d="M790.2,563.8l42.4,16.1l-4.1,10.9l-14.3-5.4l-16.8,44.2l-13.8-5.2l16.8-44.2l-14.3-5.5L790.2,563.8z"/>
</g>
<g>
	<path class="st3" d="M878.4,603.4l-11.3,61.7l-13.5-8l2.3-9.6l-18.7-11l-7.3,6.6l-13.5-8l48.8-39.6L878.4,603.4z M864.4,611.4
		c-2.2,2.2-4.5,4.4-6.7,6.6c-3.3,3.2-8.8,8-12.2,11.1l12.8,7.6L864.4,611.4z"/>
</g>
<g>
	<path class="st3" d="M920.7,630.3l17,15.1c4.6,4.1,8.6,8,10.5,11.2c3.9,6.6,2.2,12.8-1.5,17c-2.1,2.4-4,3.3-4.6,3.5
		c-6,2.7-11-0.2-13.8-1.8c2.3,2.8,5.4,6.5,5.3,11.4c0.1,3.1-1.2,6.3-3.4,8.8c-3,3.4-9.1,6.6-16.8,4.2c-4.6-1.5-8.3-4.5-13.4-8.9
		l-18.6-16.5L920.7,630.3z M908.7,665l-9.5,10.7l7.7,6.8c3.7,3.2,8.6,7.3,13.1,2.3c4.7-5.3,0.4-9.2-1.8-11.3L908.7,665z
		 M923.9,647.8l-8.1,9.2l8.3,7.4c2.5,2.2,6.7,5.6,10.8,1.1c3.8-4.2,0.2-7.7-1.9-9.6L923.9,647.8z"/>
</g>
<g>
	<path class="st3" d="M983.4,689l25.6,35.2l-9.2,6.7l-17-23.3l-8.6,6.3l15.9,21.8l-9,6.6l-15.9-21.8l-11.3,8.3l18.5,25.4L963,761
		l-27.2-37.2L983.4,689z"/>
</g>
<g>
	<path class="st3" d="M1029.5,754.5l6.1,13.1l-14.2,20.7c-5.5,7.7-7.3,10.1-10.8,14.8l33.9-16.6l6,12.8L997,824.2l-6.1-13.1
		l12.2-17.8c5.7-8.5,6.9-10.2,12.3-17.2l-33.4,16l-6-12.8L1029.5,754.5z"/>
</g>
<g>
	<path class="st3" d="M1063.6,834.5l4.4,18.2c1.6,7,4,17.6-0.7,26.4c-3.9,7.2-11.4,11.4-19.4,13.4c-4.9,1.2-8.8,1.4-11.4,1.2
		c-18.9-1-23.2-16.8-24.7-22.8l-5.5-22.5L1063.6,834.5z M1055,851.9l-33.6,8.2l1.1,4.4c2,7.6,5,18,21.4,14c4-1,7.8-2.3,10.8-5.8
		c4.2-5.2,2.8-10.6,1.7-15L1055,851.9z"/>
</g>
<g>
	<path class="st3" d="M681.1,1220c0,0,37.8,38.3,91.4,24.3c0,0,29.8-9.8,52.6-37.6c0,0,17.3-14.3,25.9-105.2c0,0,2.4-20.8-11.4-30.3
		c0,0,19.2-46.7-3.5-104.1c0,0-16-43.5-13.7-49.2c0,0-16.3-84-44.7-118.6c0,0-20.8-49.7-134.1-78.5c0,0-14.7-23.3-38-26
		c0,0-5.2,0.7-8.6-4.2c0,0-6.6-18-6.6-20.8c0,0-12.1-10.8-17.6,5.1c0,0-2.4,9.9-5.7,10.9c-3.3,1.1,4,11.1,13.8,14.9
		c0,0,3.3,32.3,7.3,44.8c0,0,4.4,8.2-11.8,12c0,0-71.2,26.8-74.1,105.6c0,0-3,32.1-7.3,47.6c-6.4,23.3,8.8,60.5,8.8,60.5
		s-10.3,31.2,14.1,73.8c0,0,13.9,19.4,13.8,42.3c0,0,6.3,114.5,109,135.4C640.8,1222.7,659.2,1223.2,681.1,1220"/>
</g>
<g>
	<path class="st3" d="M428.4,1268.5c0.3,2.2,0.6,4,2,7c2,3.9,4.9,6.8,7.7,8.8c4.8,3.3,10.5,3.9,12.8,0.6c2.7-3.8-1.8-7.8-5-10.8
		c-2.4-2.2-4.9-4.4-7.1-6.7c-2.5-2.7-11.1-11.8-3.9-22.2c8.6-12.5,22.3-8.5,30.7-2.7c11.2,7.7,13.4,17.3,15,24l-13.3,0.2
		c-0.5-2.6-0.9-4.8-2.1-7.2c-1-2.1-3.3-5.4-6.4-7.6c-4.8-3.3-9.1-2.2-10.7,0.1c-2.6,3.7,1.2,7.1,3,8.8c4.7,4.2,10.7,10.3,12.8,13.1
		c4.1,5.9,3.9,12.2,0.1,17.6c-2.4,3.5-6.4,6.4-11,7.6c-7.9,2-15.9-1.4-22.7-6.1c-13.6-9.5-14.7-19.5-15.3-25.1L428.4,1268.5z"/>
</g>
<g>
	<path class="st3" d="M506.2,1271.3l39.9,17.4l-4.6,10.5l-26.4-11.6l-4.3,9.8l24.7,10.8l-4.5,10.2l-24.7-10.8l-5.6,12.8l28.8,12.6
		l-4.6,10.6l-42.2-18.5L506.2,1271.3z"/>
</g>
<g>
	<path class="st3" d="M583.9,1300.7l-14,57.2l-14.3-3.5l14-57.2L583.9,1300.7z"/>
</g>
<g>
	<path class="st3" d="M602.5,1306.3l45.1,5.2l-1.3,11.6l-15.2-1.7l-5.4,47l-14.7-1.7l5.4-47l-15.2-1.7L602.5,1306.3z"/>
</g>
<g>
	<path class="st3" d="M700.6,1322.4c3.1-0.7,6-1.3,9-3.4c3.4-2.4,4.1-4.7,4.9-7.1l10.1-1.4l7.8,56l-13.3,1.9l-5.7-40.9
		c-2.9,1.7-3.6,2.2-11.6,3.5L700.6,1322.4z"/>
</g>
<g>
	<path class="st3" d="M797.5,1334.5c3.7,12.4-6,19.5-14.3,22c-5.8,1.7-11.4,1.4-15.1-0.2c-4-1.7-7.5-5.7-8.9-10.5
		c-0.6-2.2-0.8-4.1-0.6-5.7c0.6-5.6,4.1-8.3,6.4-10.1c-2.5-0.6-8.8-2.3-11.1-10c-2-6.6,0.3-15.8,12.8-19.6
		c9.4-2.8,18.3,0.1,21.2,9.9c2.4,8.1-1.9,12-4.2,14C787.5,1324.8,794.7,1325.3,797.5,1334.5z M766.1,1317.8c0.7,2.3,2.7,6.7,7.2,5.3
		c2.6-0.8,4.5-3.2,3.2-7.7c-0.6-2-2.7-7.2-7.4-5.4C765.8,1311.3,765.2,1314.6,766.1,1317.8z M771.7,1341c1.7,5.7,5.4,6.9,8.5,6
		c2.1-0.6,3.8-2.2,4.4-4c0.2-0.7,0.7-2.2-0.4-5.7c-1.9-6.3-6.2-6.3-7.9-6C772.8,1332,770.1,1335.5,771.7,1341z"/>
</g>
<g>
	<path class="st3" d="M800.4,1291.6l35.8-17.8l4.5,9.1c-2.9,12.3-3.2,21.1-1.6,32.1c1.3,8.7,2.7,12.7,4.7,18.2l-13.9,6.9
		c-1.9-7.8-6.8-27.3-0.5-50.7l-24.1,12L800.4,1291.6z"/>
</g>
<g>
	<path class="st3" d="M908.3,1275.9c7.4,10.6,0.4,20.4-6.8,25.4c-4.9,3.4-10.4,4.9-14.4,4.5c-4.3-0.4-8.9-3.1-11.8-7.2
		c-1.3-1.8-2-3.7-2.3-5.3c-1.2-5.5,1.3-9.1,2.9-11.6c-2.6,0.2-9,0.6-13.6-6.1c-3.9-5.7-4.7-15.1,6.1-22.6c8.1-5.6,17.4-5.6,23.2,2.8
		c4.8,6.9,1.9,12,0.4,14.6C895.8,1269.8,902.9,1268,908.3,1275.9z M873.3,1269.7c1.4,2,4.6,5.5,8.5,2.8c2.3-1.6,3.3-4.4,0.7-8.3
		c-1.2-1.7-4.8-6-8.8-2.8C870.9,1263.7,871.4,1267,873.3,1269.7z M885.9,1290.1c3.4,4.9,7.3,4.9,9.9,3.1c1.8-1.2,2.9-3.2,2.9-5.2
		c0-0.7-0.1-2.3-2.2-5.3c-3.8-5.4-7.8-4.1-9.4-3.3C884.1,1281.2,882.6,1285.3,885.9,1290.1z"/>
</g>
</svg>
